# xmcd
#
# Track frame offsets: 
#        150
#        12656
#        24809
#        52845
#        66776
#        80852
#        94629
#        114783
#        131798
#        159317
#        174809
#        192943
#        214901
#        229230
#        236434
#        247953
#        264028
#        277708
#        301701
#        319331
#
# Disc length: 4459 seconds
#
# Revision: 0
# Processed by: cddbd v1.5PL3 Copyright (c) Steve Scherf et al.
# Submitted via: ExactAudioCopy v0.95a2
#
DISCID=f5116914
DTITLE=Che and Ray - Greatest Hits II
DYEAR=2003
DGENRE=Boogie
TTITLE0=Get The Boogie
TTITLE1=Ray's Rag
TTITLE2=Foam
TTITLE3=Boogie-Woogie Boys
TTITLE4=Telephone-Boogie
TTITLE5=Boogie Brushes
TTITLE6=Good Luck
TTITLE7=TV-Production
TTITLE8=It's My Blues
TTITLE9=Aerobic Blues
TTITLE10=Boogie Breeze
TTITLE11=My Wife's Blues
TTITLE12=Consuelo
TTITLE13=Funky Stopper
TTITLE14=Oskar II
TTITLE15=Hey F.P.
TTITLE16=Steel Boogie
TTITLE17=All The Blues
TTITLE18=Dreaming
TTITLE19=Boogie Keeps The Blues Away
EXTD=
EXTT0=
EXTT1=
EXTT2=
EXTT3=
EXTT4=
EXTT5=
EXTT6=
EXTT7=
EXTT8=
EXTT9=
EXTT10=
EXTT11=
EXTT12=
EXTT13=
EXTT14=
EXTT15=
EXTT16=
EXTT17=
EXTT18=
EXTT19=
PLAYORDER=
